<svg width="308" height="324" viewBox="0 0 308 324" fill="none" xmlns="http://www.w3.org/2000/svg">
<g clip-path="url(#clip0_199_2379)">
<mask id="mask0_199_2379" style="mask-type:luminance" maskUnits="userSpaceOnUse" x="50" y="146" width="200" height="141">
<path d="M250 146H50V287H250V146Z" fill="white"/>
</mask>
<g mask="url(#mask0_199_2379)">
<path d="M150 268.485C74.3644 313.046 13.0562 269.823 76.2621 216.5C13.0562 163.177 74.3644 119.955 150 164.515C225.621 119.955 286.944 163.177 223.738 216.5C286.944 269.782 225.621 313.046 150 268.485Z" fill="url(#paint0_linear_199_2379)"/>
</g>
</g>
<g filter="url(#filter0_d_199_2379)">
<rect x="101" y="196" width="98" height="98" rx="49" fill="white" fill-opacity="0.4" shape-rendering="crispEdges"/>
</g>
<g opacity="0.4" filter="url(#filter1_f_199_2379)">
<rect x="119.304" y="244.725" width="61.3913" height="43.2868" rx="21.6434" fill="#00A77E"/>
</g>
<rect x="110.572" y="205.572" width="78.8561" height="78.8561" rx="39.428" fill="url(#paint1_linear_199_2379)"/>
<path d="M150 225.833C139.439 225.833 130.833 234.439 130.833 245C130.833 255.561 139.439 264.167 150 264.167C160.561 264.167 169.167 255.561 169.167 245C169.167 234.439 160.561 225.833 150 225.833ZM159.162 240.592L148.294 251.459C148.026 251.728 147.662 251.881 147.278 251.881C146.895 251.881 146.531 251.728 146.263 251.459L140.838 246.035C140.283 245.479 140.283 244.559 140.838 244.003C141.394 243.448 142.314 243.448 142.87 244.003L147.278 248.412L157.13 238.56C157.686 238.004 158.606 238.004 159.162 238.56C159.718 239.116 159.718 240.017 159.162 240.592Z" fill="white"/>
<g clip-path="url(#clip1_199_2379)">
<mask id="mask1_199_2379" style="mask-type:luminance" maskUnits="userSpaceOnUse" x="0" y="0" width="50" height="50">
<path d="M50 0H0V50H50V0Z" fill="white"/>
</mask>
<g mask="url(#mask1_199_2379)">
<path d="M25 50C24.2762 26.3155 23.6845 25.7275 0 25C23.6845 24.2762 24.2726 23.6845 25 0C25.7237 23.6845 26.3155 24.2726 50 25C26.3155 25.7275 25.7275 26.3083 25 50Z" fill="#F6AE39"/>
</g>
</g>
<g clip-path="url(#clip2_199_2379)">
<mask id="mask2_199_2379" style="mask-type:luminance" maskUnits="userSpaceOnUse" x="91" y="74" width="25" height="25">
<path d="M116 74H91V99H116V74Z" fill="white"/>
</mask>
<g mask="url(#mask2_199_2379)">
<path d="M103.5 99C103.138 87.1578 102.842 86.8638 91 86.5C102.842 86.1381 103.136 85.8422 103.5 74C103.862 85.8422 104.158 86.1363 116 86.5C104.158 86.8638 103.864 87.1541 103.5 99Z" fill="#38CCAA"/>
</g>
</g>
<g clip-path="url(#clip3_199_2379)">
<mask id="mask3_199_2379" style="mask-type:luminance" maskUnits="userSpaceOnUse" x="186" y="0" width="38" height="38">
<path d="M223.5 0H186V37.5H223.5V0Z" fill="white"/>
</mask>
<g mask="url(#mask3_199_2379)">
<path d="M204.75 37.5C204.207 19.7366 203.763 19.2956 186 18.75C203.763 18.2071 204.204 17.7634 204.75 0C205.293 17.7634 205.737 18.2044 223.5 18.75C205.737 19.2956 205.296 19.7312 204.75 37.5Z" fill="#3A82E2"/>
</g>
</g>
<g clip-path="url(#clip4_199_2379)">
<mask id="mask4_199_2379" style="mask-type:luminance" maskUnits="userSpaceOnUse" x="250" y="86" width="50" height="50">
<path d="M300 86H250V136H300V86Z" fill="white"/>
</mask>
<g mask="url(#mask4_199_2379)">
<path d="M275 136C274.276 112.316 273.684 111.728 250 111C273.684 110.276 274.273 109.684 275 86C275.724 109.684 276.316 110.273 300 111C276.316 111.728 275.728 112.308 275 136Z" fill="#02123B"/>
</g>
</g>
<g clip-path="url(#clip5_199_2379)">
<mask id="mask5_199_2379" style="mask-type:luminance" maskUnits="userSpaceOnUse" x="43" y="243" width="25" height="25">
<path d="M68 243H43V268H68V243Z" fill="white"/>
</mask>
<g mask="url(#mask5_199_2379)">
<path d="M55.5 268C55.1381 256.158 54.8422 255.864 43 255.5C54.8422 255.138 55.1363 254.842 55.5 243C55.8619 254.842 56.1578 255.136 68 255.5C56.1578 255.864 55.8638 256.154 55.5 268Z" fill="#F6AE39"/>
</g>
</g>
<g clip-path="url(#clip6_199_2379)">
<mask id="mask6_199_2379" style="mask-type:luminance" maskUnits="userSpaceOnUse" x="244" y="175" width="25" height="25">
<path d="M269 175H244V200H269V175Z" fill="white"/>
</mask>
<g mask="url(#mask6_199_2379)">
<path d="M256.5 200C256.138 188.158 255.842 187.864 244 187.5C255.842 187.138 256.136 186.842 256.5 175C256.862 186.842 257.158 187.136 269 187.5C257.158 187.864 256.864 188.154 256.5 200Z" fill="#F6AE39"/>
</g>
</g>
<g clip-path="url(#clip7_199_2379)">
<mask id="mask7_199_2379" style="mask-type:luminance" maskUnits="userSpaceOnUse" x="0" y="151" width="38" height="38">
<path d="M37.5 151H0V188.5H37.5V151Z" fill="white"/>
</mask>
<g mask="url(#mask7_199_2379)">
<path d="M18.75 188.5C18.2071 170.737 17.7634 170.296 0 169.75C17.7634 169.207 18.2044 168.763 18.75 151C19.2928 168.763 19.7366 169.204 37.5 169.75C19.7366 170.296 19.2956 170.731 18.75 188.5Z" fill="#3A82E2"/>
</g>
</g>
<defs>
<filter id="filter0_d_199_2379" x="81.6579" y="186.974" width="136.684" height="136.684" filterUnits="userSpaceOnUse" color-interpolation-filters="sRGB">
<feFlood flood-opacity="0" result="BackgroundImageFix"/>
<feColorMatrix in="SourceAlpha" type="matrix" values="0 0 0 0 0 0 0 0 0 0 0 0 0 0 0 0 0 0 127 0" result="hardAlpha"/>
<feOffset dy="10.3158"/>
<feGaussianBlur stdDeviation="9.67105"/>
<feComposite in2="hardAlpha" operator="out"/>
<feColorMatrix type="matrix" values="0 0 0 0 0 0 0 0 0 0.654902 0 0 0 0 0.494118 0 0 0 0.2 0"/>
<feBlend mode="normal" in2="BackgroundImageFix" result="effect1_dropShadow_199_2379"/>
<feBlend mode="normal" in="SourceGraphic" in2="effect1_dropShadow_199_2379" result="shape"/>
</filter>
<filter id="filter1_f_199_2379" x="101.252" y="226.672" width="97.4966" height="79.3921" filterUnits="userSpaceOnUse" color-interpolation-filters="sRGB">
<feFlood flood-opacity="0" result="BackgroundImageFix"/>
<feBlend mode="normal" in="SourceGraphic" in2="BackgroundImageFix" result="shape"/>
<feGaussianBlur stdDeviation="9.02632" result="effect1_foregroundBlur_199_2379"/>
</filter>
<linearGradient id="paint0_linear_199_2379" x1="149.999" y1="146" x2="149.999" y2="287" gradientUnits="userSpaceOnUse">
<stop stop-color="#EAFFFA"/>
<stop offset="1" stop-color="#EAFFFA" stop-opacity="0"/>
</linearGradient>
<linearGradient id="paint1_linear_199_2379" x1="189.428" y1="284.428" x2="137.036" y2="190.768" gradientUnits="userSpaceOnUse">
<stop stop-color="#039E78"/>
<stop offset="1" stop-color="#33FFCD"/>
</linearGradient>
<clipPath id="clip0_199_2379">
<rect width="200" height="141" fill="white" transform="translate(50 146)"/>
</clipPath>
<clipPath id="clip1_199_2379">
<rect width="50" height="50" fill="white"/>
</clipPath>
<clipPath id="clip2_199_2379">
<rect width="25" height="25" fill="white" transform="translate(91 74)"/>
</clipPath>
<clipPath id="clip3_199_2379">
<rect width="37.5" height="37.5" fill="white" transform="translate(186)"/>
</clipPath>
<clipPath id="clip4_199_2379">
<rect width="50" height="50" fill="white" transform="translate(250 86)"/>
</clipPath>
<clipPath id="clip5_199_2379">
<rect width="25" height="25" fill="white" transform="translate(43 243)"/>
</clipPath>
<clipPath id="clip6_199_2379">
<rect width="25" height="25" fill="white" transform="translate(244 175)"/>
</clipPath>
<clipPath id="clip7_199_2379">
<rect width="37.5" height="37.5" fill="white" transform="translate(0 151)"/>
</clipPath>
</defs>
</svg>
